<svg width="77" height="58" viewBox="0 0 77 58" fill="none" xmlns="http://www.w3.org/2000/svg">
<path d="M64.0521 12.565C61.8156 11.7288 59.3873 11.5467 57.0511 12.0398C54.7148 12.5328 52.5673 13.6808 50.8594 15.3495C50.641 12.4775 49.4434 9.76746 47.4667 7.67249C45.4901 5.57753 42.8542 4.22457 39.9997 3.83978C37.1452 3.455 34.2452 4.06172 31.7843 5.55851C29.3235 7.0553 27.451 9.35145 26.4799 12.0631C21.888 24.4386 38.3358 49.1009 38.3358 49.1009C38.3358 49.1009 66.8899 41.1368 71.4819 28.7612C72.6444 25.6282 72.5147 22.1617 71.1213 19.1244C69.728 16.087 67.1851 13.7275 64.0521 12.565Z" fill="url(#paint0_linear_37_86)"/>
<line x1="15.5" y1="40.5" x2="37.5172" y2="40.5" stroke="url(#paint1_linear_37_86)" stroke-width="7" stroke-linecap="round"/>
<line x1="3.5" y1="18.5" x2="25.5172" y2="18.5" stroke="url(#paint2_linear_37_86)" stroke-width="7" stroke-linecap="round"/>
<line x1="9.5" y1="29.5" x2="31.5172" y2="29.5" stroke="url(#paint3_linear_37_86)" stroke-width="7" stroke-linecap="round"/>
<path d="M38.5017 48.9633C38.7704 49.9265 38.7707 49.9264 38.7711 49.9263L38.7724 49.9259L38.777 49.9247L38.7939 49.9199L38.858 49.9017C38.9141 49.8857 38.9965 49.862 39.1037 49.8308C39.3179 49.7682 39.6312 49.6754 40.0306 49.553C40.8292 49.3083 41.9729 48.9456 43.3586 48.4717C46.1284 47.5245 49.8742 46.1302 53.7697 44.3432C57.6601 42.5585 61.7297 40.3687 65.1307 37.8232C68.5142 35.2907 71.339 32.3302 72.5853 28.9715C73.8401 25.5898 73.7001 21.8482 72.1962 18.5698C70.6924 15.2917 67.9482 12.7452 64.567 11.4902C62.153 10.588 59.532 10.3915 57.0105 10.9237C55.1019 11.3265 53.31 12.1342 51.7522 13.2839C51.2305 10.8816 50.0631 8.65363 48.36 6.84859C46.2261 4.58704 43.3806 3.12649 40.2992 2.71111C37.2177 2.29573 34.0871 2.9507 31.4305 4.56651C28.7757 6.18133 26.7551 8.65802 25.7063 11.583C24.4622 14.9407 24.6725 19.0251 25.5847 23.1495C26.502 27.2974 28.1582 31.6117 29.9429 35.5021C31.7299 39.3977 33.6595 42.8979 35.141 45.4225C35.8823 46.6857 36.5125 47.7066 36.9583 48.413C37.1812 48.7663 37.358 49.041 37.4796 49.2282C37.5405 49.3218 37.5875 49.3935 37.6195 49.4422L37.6563 49.4978L37.666 49.5124L37.6686 49.5164L37.6694 49.5175C37.6696 49.5179 37.6698 49.5181 38.5017 48.9633ZM38.5017 48.9633L37.6698 49.5181L38.0721 50.1213L38.7704 49.9265L38.5017 48.9633Z" stroke="#FDFDFD" stroke-width="2"/>
<defs>
<linearGradient id="paint0_linear_37_86" x1="55.5" y1="23.9999" x2="67" y2="34.9999" gradientUnits="userSpaceOnUse">
<stop stop-color="#FFBE00"/>
<stop offset="1" stop-color="#FFEAAD"/>
</linearGradient>
<linearGradient id="paint1_linear_37_86" x1="26.5086" y1="44" x2="26.5086" y2="45" gradientUnits="userSpaceOnUse">
<stop stop-color="#FFBE00"/>
<stop offset="1" stop-color="#FFBE00"/>
</linearGradient>
<linearGradient id="paint2_linear_37_86" x1="14.5086" y1="22" x2="14.5086" y2="23" gradientUnits="userSpaceOnUse">
<stop stop-color="#FFBE00"/>
<stop offset="1" stop-color="#FFBE00"/>
</linearGradient>
<linearGradient id="paint3_linear_37_86" x1="20.5086" y1="33" x2="20.5086" y2="34" gradientUnits="userSpaceOnUse">
<stop stop-color="#FFBE00"/>
<stop offset="1" stop-color="#FFBE00"/>
</linearGradient>
</defs>
</svg>
