<svg width="304" height="53" viewBox="0 0 304 53" fill="none" xmlns="http://www.w3.org/2000/svg">
<rect width="304" height="53" rx="26.5" fill="url(#paint0_linear_33_68)"/>
<path d="M84.454 31.234C83.242 31.234 82.21 30.958 81.358 30.406C80.518 29.854 79.93 29.098 79.594 28.138L81.376 27.094C81.88 28.51 82.924 29.218 84.508 29.218C85.288 29.218 85.87 29.068 86.254 28.768C86.65 28.456 86.848 28.054 86.848 27.562C86.848 27.046 86.638 26.656 86.218 26.392C85.798 26.116 85.054 25.816 83.986 25.492C83.386 25.312 82.9 25.144 82.528 24.988C82.156 24.832 81.76 24.616 81.34 24.34C80.932 24.052 80.626 23.698 80.422 23.278C80.218 22.858 80.116 22.366 80.116 21.802C80.116 20.686 80.512 19.804 81.304 19.156C82.096 18.496 83.05 18.166 84.166 18.166C85.174 18.166 86.056 18.412 86.812 18.904C87.568 19.396 88.15 20.074 88.558 20.938L86.812 21.946C86.284 20.77 85.402 20.182 84.166 20.182C83.566 20.182 83.086 20.326 82.726 20.614C82.366 20.89 82.186 21.268 82.186 21.748C82.186 22.216 82.366 22.588 82.726 22.864C83.098 23.128 83.764 23.41 84.724 23.71C85.204 23.866 85.552 23.986 85.768 24.07C85.996 24.142 86.308 24.262 86.704 24.43C87.112 24.598 87.418 24.766 87.622 24.934C87.826 25.102 88.042 25.312 88.27 25.564C88.51 25.816 88.678 26.104 88.774 26.428C88.87 26.752 88.918 27.118 88.918 27.526C88.918 28.666 88.504 29.572 87.676 30.244C86.86 30.904 85.786 31.234 84.454 31.234ZM92.3515 27.328C92.4955 28.012 92.8255 28.54 93.3415 28.912C93.8575 29.272 94.4875 29.452 95.2315 29.452C96.2635 29.452 97.0375 29.08 97.5535 28.336L99.1555 29.272C98.2675 30.58 96.9535 31.234 95.2135 31.234C93.7495 31.234 92.5675 30.79 91.6675 29.902C90.7675 29.002 90.3175 27.868 90.3175 26.5C90.3175 25.156 90.7615 24.034 91.6495 23.134C92.5375 22.222 93.6775 21.766 95.0695 21.766C96.3895 21.766 97.4695 22.228 98.3095 23.152C99.1615 24.076 99.5875 25.198 99.5875 26.518C99.5875 26.722 99.5635 26.992 99.5155 27.328H92.3515ZM92.3335 25.744H97.6255C97.4935 25.012 97.1875 24.46 96.7075 24.088C96.2395 23.716 95.6875 23.53 95.0515 23.53C94.3315 23.53 93.7315 23.728 93.2515 24.124C92.7715 24.52 92.4655 25.06 92.3335 25.744ZM102.775 27.328C102.919 28.012 103.249 28.54 103.765 28.912C104.281 29.272 104.911 29.452 105.655 29.452C106.687 29.452 107.461 29.08 107.977 28.336L109.579 29.272C108.691 30.58 107.377 31.234 105.637 31.234C104.173 31.234 102.991 30.79 102.091 29.902C101.191 29.002 100.741 27.868 100.741 26.5C100.741 25.156 101.185 24.034 102.073 23.134C102.961 22.222 104.101 21.766 105.493 21.766C106.813 21.766 107.893 22.228 108.733 23.152C109.585 24.076 110.011 25.198 110.011 26.518C110.011 26.722 109.987 26.992 109.939 27.328H102.775ZM102.757 25.744H108.049C107.917 25.012 107.611 24.46 107.131 24.088C106.663 23.716 106.111 23.53 105.475 23.53C104.755 23.53 104.155 23.728 103.675 24.124C103.195 24.52 102.889 25.06 102.757 25.744ZM126.59 22H128.642L125.816 31H123.908L122.036 24.934L120.146 31H118.238L115.412 22H117.464L119.21 28.21L121.1 22H122.954L124.826 28.21L126.59 22ZM134.807 21.766C135.839 21.766 136.673 22.096 137.309 22.756C137.945 23.416 138.263 24.322 138.263 25.474V31H136.319V25.672C136.319 25 136.139 24.484 135.779 24.124C135.419 23.764 134.927 23.584 134.303 23.584C133.619 23.584 133.067 23.8 132.647 24.232C132.227 24.652 132.017 25.3 132.017 26.176V31H130.073V18.4H132.017V23.152C132.605 22.228 133.535 21.766 134.807 21.766ZM144.605 31.234C143.285 31.234 142.163 30.778 141.239 29.866C140.315 28.954 139.853 27.832 139.853 26.5C139.853 25.168 140.315 24.046 141.239 23.134C142.163 22.222 143.285 21.766 144.605 21.766C145.937 21.766 147.059 22.222 147.971 23.134C148.895 24.046 149.357 25.168 149.357 26.5C149.357 27.832 148.895 28.954 147.971 29.866C147.059 30.778 145.937 31.234 144.605 31.234ZM142.607 28.534C143.147 29.074 143.813 29.344 144.605 29.344C145.397 29.344 146.063 29.074 146.603 28.534C147.143 27.994 147.413 27.316 147.413 26.5C147.413 25.684 147.143 25.006 146.603 24.466C146.063 23.926 145.397 23.656 144.605 23.656C143.813 23.656 143.147 23.926 142.607 24.466C142.067 25.006 141.797 25.684 141.797 26.5C141.797 27.316 142.067 27.994 142.607 28.534ZM155.614 31V17.86H157.558V31H155.614ZM161.652 20.29C161.412 20.53 161.124 20.65 160.788 20.65C160.452 20.65 160.158 20.53 159.906 20.29C159.666 20.038 159.546 19.744 159.546 19.408C159.546 19.072 159.666 18.784 159.906 18.544C160.146 18.292 160.44 18.166 160.788 18.166C161.136 18.166 161.43 18.292 161.67 18.544C161.91 18.784 162.03 19.072 162.03 19.408C162.03 19.744 161.904 20.038 161.652 20.29ZM159.816 31V22H161.76V31H159.816ZM171.973 31H169.651L165.961 26.842V31H164.017V18.4H165.961V25.978L169.453 22H171.829L167.869 26.41L171.973 31ZM174.09 27.328C174.234 28.012 174.564 28.54 175.08 28.912C175.596 29.272 176.226 29.452 176.97 29.452C178.002 29.452 178.776 29.08 179.292 28.336L180.894 29.272C180.006 30.58 178.692 31.234 176.952 31.234C175.488 31.234 174.306 30.79 173.406 29.902C172.506 29.002 172.056 27.868 172.056 26.5C172.056 25.156 172.5 24.034 173.388 23.134C174.276 22.222 175.416 21.766 176.808 21.766C178.128 21.766 179.208 22.228 180.048 23.152C180.9 24.076 181.326 25.198 181.326 26.518C181.326 26.722 181.302 26.992 181.254 27.328H174.09ZM174.072 25.744H179.364C179.232 25.012 178.926 24.46 178.446 24.088C177.978 23.716 177.426 23.53 176.79 23.53C176.07 23.53 175.47 23.728 174.99 24.124C174.51 24.52 174.204 25.06 174.072 25.744ZM184.431 24.484C184.431 24.784 184.593 25.024 184.917 25.204C185.253 25.372 185.655 25.522 186.123 25.654C186.603 25.774 187.083 25.918 187.563 26.086C188.043 26.254 188.445 26.542 188.769 26.95C189.105 27.346 189.273 27.85 189.273 28.462C189.273 29.326 188.937 30.004 188.265 30.496C187.605 30.988 186.771 31.234 185.763 31.234C184.875 31.234 184.113 31.048 183.477 30.676C182.841 30.304 182.379 29.788 182.091 29.128L183.765 28.156C184.077 29.02 184.743 29.452 185.763 29.452C186.783 29.452 187.293 29.116 187.293 28.444C187.293 28.156 187.125 27.922 186.789 27.742C186.465 27.562 186.063 27.412 185.583 27.292C185.115 27.16 184.641 27.01 184.161 26.842C183.681 26.674 183.273 26.398 182.937 26.014C182.613 25.618 182.451 25.12 182.451 24.52C182.451 23.692 182.763 23.026 183.387 22.522C184.023 22.018 184.809 21.766 185.745 21.766C186.489 21.766 187.149 21.934 187.725 22.27C188.313 22.594 188.763 23.05 189.075 23.638L187.437 24.556C187.125 23.872 186.561 23.53 185.745 23.53C185.373 23.53 185.061 23.614 184.809 23.782C184.557 23.938 184.431 24.172 184.431 24.484ZM201.548 22H203.618L200.162 31.288C199.298 33.616 197.834 34.72 195.77 34.6V32.782C196.382 32.818 196.874 32.686 197.246 32.386C197.618 32.098 197.924 31.642 198.164 31.018L198.254 30.838L194.438 22H196.562L199.244 28.534L201.548 22ZM208.73 31.234C207.41 31.234 206.288 30.778 205.364 29.866C204.44 28.954 203.978 27.832 203.978 26.5C203.978 25.168 204.44 24.046 205.364 23.134C206.288 22.222 207.41 21.766 208.73 21.766C210.062 21.766 211.184 22.222 212.096 23.134C213.02 24.046 213.482 25.168 213.482 26.5C213.482 27.832 213.02 28.954 212.096 29.866C211.184 30.778 210.062 31.234 208.73 31.234ZM206.732 28.534C207.272 29.074 207.938 29.344 208.73 29.344C209.522 29.344 210.188 29.074 210.728 28.534C211.268 27.994 211.538 27.316 211.538 26.5C211.538 25.684 211.268 25.006 210.728 24.466C210.188 23.926 209.522 23.656 208.73 23.656C207.938 23.656 207.272 23.926 206.732 24.466C206.192 25.006 205.922 25.684 205.922 26.5C205.922 27.316 206.192 27.994 206.732 28.534ZM221.305 22H223.249V31H221.305V29.848C220.717 30.772 219.787 31.234 218.515 31.234C217.483 31.234 216.649 30.904 216.013 30.244C215.377 29.584 215.059 28.678 215.059 27.526V22H217.003V27.328C217.003 28 217.183 28.516 217.543 28.876C217.903 29.236 218.395 29.416 219.019 29.416C219.703 29.416 220.255 29.206 220.675 28.786C221.095 28.354 221.305 27.7 221.305 26.824V22Z" fill="black"/>
<defs>
<linearGradient id="paint0_linear_33_68" x1="152" y1="0" x2="152" y2="53" gradientUnits="userSpaceOnUse">
<stop offset="0.592641" stop-color="#F3C540"/>
<stop offset="1" stop-color="#ECD38C"/>
</linearGradient>
</defs>
</svg>
