<svg width="102" height="25" viewBox="0 0 102 25" fill="none" xmlns="http://www.w3.org/2000/svg">
<g id="Frame">
<path id="Vector" d="M7.446 10.845C11.236 9.53799 11.881 6.13699 11.398 3.00799C11.398 2.89499 11.494 2.81499 11.59 2.86299C15.218 4.61999 19.298 8.47299 19.298 14.278C19.298 18.728 15.847 22.663 10.832 22.663C5.478 22.663 2.367 18.843 2.367 14.279C2.367 11.618 4.254 8.87799 6.285 7.71599C6.382 7.65199 6.511 7.71599 6.511 7.82899C6.559 8.42599 6.721 9.94199 7.381 10.829C7.397 10.845 7.429 10.845 7.445 10.845H7.446Z" fill="url(#paint0_linear_1_13855)"/>
<path id="Vector_2" d="M29.988 18.976L30.273 18.648L31.125 21.368L31.014 21.472C30.375 22.072 29.414 22.375 28.156 22.375H28.11C26.98 22.375 26.097 22.068 25.485 21.462C24.861 20.842 24.545 19.934 24.545 18.764V11.394H22.367V8.39401H24.544V4.80201H27.898V8.39701H30.559V11.396H27.882V18.055C27.882 18.363 27.955 19.361 28.898 19.361C29.372 19.361 29.825 19.166 29.988 18.976ZM32.265 22.068V8.41201H35.619V22.069L32.265 22.068ZM33.925 2.85001C35.036 2.85001 35.94 3.75401 35.94 4.86501C35.9398 5.39943 35.7274 5.9119 35.3496 6.28989C34.9718 6.66788 34.4594 6.88048 33.925 6.88101C33.3904 6.88074 32.8778 6.66826 32.4998 6.29024C32.1218 5.91222 31.9093 5.3996 31.909 4.86501C31.909 3.77301 32.832 2.85001 33.925 2.85001ZM45.005 8.08801C47.905 8.08801 49.503 9.67501 49.503 12.555V22.069H46.15V13.346H46.161C46.093 11.798 45.346 11.105 43.765 11.105C42.353 11.105 41.203 11.958 40.62 12.718V22.07H37.266V8.41201H40.62V9.85301C41.591 8.93501 43.136 8.08801 45.005 8.08801ZM60.501 9.83501V3.41201H63.855V22.084H60.5V20.667C59.432 21.769 58.012 22.39 56.517 22.39C52.861 22.39 50.405 19.52 50.405 15.247C50.405 10.965 52.862 8.08701 56.517 8.08701C58.021 8.08701 59.441 8.71801 60.501 9.83501ZM60.501 12.712C59.837 11.777 58.521 11.104 57.339 11.104C55.266 11.104 53.873 12.769 53.873 15.248C53.873 17.718 55.265 19.376 57.34 19.376C58.548 19.376 59.863 18.718 60.502 17.802V12.712H60.501ZM71.53 8.08801C75.488 8.08801 78.253 11.139 78.253 15.506V16.426H68.117C68.452 18.346 69.961 19.57 72.03 19.57C73.34 19.57 74.776 19.015 75.602 18.19L75.806 17.985L77.393 20.279L77.245 20.422C75.926 21.692 73.972 22.392 71.741 22.392C67.535 22.392 64.598 19.448 64.598 15.233C64.615 11.16 67.595 8.09001 71.532 8.09001L71.53 8.08801ZM68.093 13.91H74.983C74.793 11.852 73.09 10.91 71.53 10.91C69.175 10.91 68.284 12.687 68.093 13.91ZM86.365 8.10501H86.606V11.48L86.318 11.422C86.0359 11.3687 85.7492 11.3429 85.462 11.345C84.381 11.345 82.879 12.102 82.318 12.918V22.052H78.964V8.41201H82.334V9.94001C83.444 8.78201 84.912 8.10501 86.365 8.10501Z" fill="#E9EBEE"/>
<path id="Vector_3" d="M99.7651 16.212V14.292H95.4161V9.55301H93.3021V14.292H88.9281V16.212H93.3021V21.144H95.4161V16.212" fill="url(#paint1_linear_1_13855)"/>
</g>
<defs>
<linearGradient id="paint0_linear_1_13855" x1="4.84648" y1="19.7613" x2="18.6858" y2="7.93576" gradientUnits="userSpaceOnUse">
<stop stop-color="#FD267A"/>
<stop offset="1" stop-color="#FF6036"/>
</linearGradient>
<linearGradient id="paint1_linear_1_13855" x1="90.5151" y1="19.4465" x2="98.6927" y2="11.8009" gradientUnits="userSpaceOnUse">
<stop stop-color="#FD267A"/>
<stop offset="1" stop-color="#FF6036"/>
</linearGradient>
</defs>
</svg>
