<svg width="102" height="25" viewBox="0 0 102 25" fill="none" xmlns="http://www.w3.org/2000/svg">
<g id="Frame">
<g id="Group">
<path id="Vector" d="M7.44599 10.845C11.236 9.53799 11.881 6.13699 11.398 3.00799C11.398 2.89499 11.494 2.81499 11.59 2.86299C15.218 4.61999 19.298 8.47299 19.298 14.278C19.298 18.728 15.847 22.663 10.832 22.663C5.47799 22.663 2.36699 18.843 2.36699 14.279C2.36699 11.618 4.25399 8.87799 6.28499 7.71599C6.38199 7.65199 6.51099 7.71599 6.51099 7.82899C6.55899 8.42599 6.72099 9.94199 7.38099 10.829C7.39699 10.845 7.42999 10.845 7.44599 10.845Z" fill="url(#paint0_linear_1_12674)"/>
<path id="Vector_2" d="M29.988 18.976L30.273 18.648L31.125 21.368L31.014 21.472C30.375 22.072 29.414 22.375 28.156 22.375H28.11C26.98 22.375 26.097 22.068 25.485 21.462C24.861 20.842 24.545 19.934 24.545 18.764V11.394H22.367V8.39398H24.544V4.80198H27.898V8.39698H30.559V11.396H27.882V18.055C27.882 18.363 27.955 19.361 28.898 19.361C29.372 19.361 29.825 19.166 29.988 18.976ZM32.265 22.068V8.41198H35.619V22.069L32.265 22.068ZM33.925 2.84998C35.036 2.84998 35.94 3.75398 35.94 4.86498C35.9397 5.3994 35.7274 5.91187 35.3496 6.28986C34.9718 6.66784 34.4594 6.88045 33.925 6.88098C33.3904 6.88071 32.8778 6.66823 32.4998 6.29021C32.1217 5.91219 31.9093 5.39957 31.909 4.86498C31.909 3.77298 32.832 2.84998 33.925 2.84998ZM45.005 8.08798C47.905 8.08798 49.503 9.67498 49.503 12.555V22.069H46.15V13.346H46.161C46.093 11.798 45.346 11.105 43.765 11.105C42.353 11.105 41.203 11.958 40.62 12.718V22.07H37.266V8.41198H40.62V9.85298C41.591 8.93498 43.136 8.08798 45.005 8.08798ZM60.501 9.83498V3.41198H63.855V22.084H60.5V20.667C59.432 21.769 58.012 22.39 56.517 22.39C52.861 22.39 50.405 19.52 50.405 15.247C50.405 10.965 52.862 8.08698 56.517 8.08698C58.021 8.08698 59.441 8.71698 60.501 9.83398V9.83498ZM60.501 12.712C59.837 11.777 58.521 11.104 57.339 11.104C55.266 11.104 53.873 12.769 53.873 15.248C53.873 17.718 55.265 19.376 57.34 19.376C58.548 19.376 59.863 18.718 60.502 17.802V12.712H60.501ZM71.53 8.08798C75.488 8.08798 78.253 11.139 78.253 15.506V16.426H68.117C68.452 18.346 69.961 19.57 72.03 19.57C73.34 19.57 74.776 19.015 75.602 18.19L75.806 17.985L77.393 20.279L77.245 20.422C75.926 21.692 73.972 22.392 71.741 22.392C67.535 22.392 64.598 19.448 64.598 15.233C64.615 11.16 67.595 8.08998 71.532 8.08998L71.53 8.08798ZM68.093 13.91H74.983C74.793 11.852 73.09 10.91 71.53 10.91C69.175 10.91 68.284 12.687 68.093 13.91ZM86.365 8.10498H86.606V11.48L86.318 11.422C86.0358 11.3686 85.7491 11.3429 85.462 11.345C84.381 11.345 82.879 12.102 82.318 12.918V22.052H78.964V8.41198H82.334V9.93998C83.444 8.78198 84.912 8.10498 86.365 8.10498Z" fill="#424242"/>
<path id="Vector_3" d="M99.765 16.212V14.292H95.416V9.55299H93.302V14.292H88.928V16.212H93.302V21.144H95.416V16.212" fill="url(#paint1_linear_1_12674)"/>
</g>
</g>
<defs>
<linearGradient id="paint0_linear_1_12674" x1="1695.47" y1="2.84879" x2="-261.705" y2="1675.23" gradientUnits="userSpaceOnUse">
<stop stop-color="#FF7854"/>
<stop offset="1" stop-color="#FF4458"/>
</linearGradient>
<linearGradient id="paint1_linear_1_12674" x1="1172.63" y1="-143.877" x2="-2.43202" y2="1252.59" gradientUnits="userSpaceOnUse">
<stop stop-color="#FF7854"/>
<stop offset="1" stop-color="#FF4458"/>
</linearGradient>
</defs>
</svg>
