<svg width="121" height="25" viewBox="0 0 121 25" fill="none" xmlns="http://www.w3.org/2000/svg">
<g id="Frame">
<path id="Vector" d="M7.16701 10.238C10.915 8.954 11.554 5.61 11.074 2.537C11.074 2.425 11.17 2.347 11.267 2.394C14.856 4.121 18.892 7.908 18.892 13.612C18.892 17.986 15.478 21.852 10.516 21.852C5.22002 21.852 2.14001 18.097 2.14001 13.612C2.14001 10.998 4.00601 8.304 6.01701 7.164C6.11401 7.1 6.24001 7.164 6.24001 7.274C6.28901 7.861 6.44801 9.35 7.10201 10.222C7.11801 10.238 7.15101 10.238 7.16701 10.238ZM90.007 8.968C90.201 8.296 90.929 7.75 91.632 7.75H116.637C117.343 7.75 117.757 8.297 117.565 8.968L114.389 20.054C114.196 20.726 113.469 21.272 112.765 21.272H87.76C87.054 21.272 86.64 20.726 86.832 20.054L90.007 8.968Z" fill="url(#paint0_linear_1_13843)"/>
<path id="Vector_2" d="M29.735 18.059L30.017 17.741L30.867 20.384L30.756 20.486C30.119 21.069 29.161 21.364 27.909 21.364H27.863C26.736 21.364 25.856 21.066 25.246 20.476C24.624 19.875 24.31 18.991 24.31 17.853V10.69H22.14V7.77201H24.309V4.276H27.649V7.774H30.299V10.689H27.633V17.163C27.633 17.461 27.706 18.433 28.645 18.433C29.118 18.433 29.569 18.243 29.732 18.059H29.735ZM32.002 21.067V7.79H35.343V21.067H32.002ZM33.656 2.38C34.764 2.38 35.665 3.259 35.665 4.34C35.665 5.422 34.765 6.3 33.656 6.3C32.549 6.3 31.648 5.422 31.648 4.34C31.648 3.28 32.568 2.382 33.656 2.382V2.38ZM44.696 7.475C47.584 7.475 49.176 9.017 49.176 11.817V21.066H45.834V12.586H45.845C45.777 11.082 45.032 10.406 43.457 10.406C42.051 10.406 40.905 11.237 40.325 11.973V21.067H36.983V7.788H40.325V9.19001C41.292 8.29701 42.835 7.475 44.696 7.475ZM60.13 9.172V2.93H63.472V21.082H60.13V19.704C59.613 20.2322 58.9961 20.6524 58.3153 20.9402C57.6344 21.2279 56.9031 21.3774 56.164 21.38C52.522 21.38 50.076 18.59 50.076 14.436C50.076 10.273 52.522 7.47601 56.164 7.47601C57.662 7.47601 59.074 8.087 60.13 9.172ZM60.13 11.969C59.47 11.061 58.16 10.407 56.982 10.407C54.917 10.407 53.528 12.027 53.528 14.436C53.528 16.836 54.917 18.448 56.982 18.448C58.186 18.448 59.496 17.808 60.13 16.919V11.969ZM71.12 7.47601C75.064 7.47601 77.82 10.441 77.82 14.686V15.581H67.717C68.05 17.446 69.553 18.638 71.615 18.638C72.919 18.638 74.348 18.098 75.172 17.295L75.376 17.095L76.958 19.325L76.812 19.464C75.496 20.699 73.549 21.379 71.326 21.379C67.136 21.379 64.209 18.518 64.209 14.419C64.225 10.46 67.196 7.475 71.117 7.475L71.119 7.47601H71.12ZM67.697 13.136H74.559C74.369 11.133 72.673 10.219 71.119 10.219C68.773 10.219 67.886 11.945 67.697 13.134V13.136ZM85.9 7.491H86.14V10.771L85.852 10.716C85.571 10.6642 85.2857 10.6395 85 10.642C83.922 10.642 82.426 11.376 81.867 12.169V21.049H78.526V7.79H81.883V9.274C82.989 8.14801 84.451 7.491 85.9 7.491Z" fill="#E9EBEE"/>
<path id="Vector_3" d="M94.946 17.38C95.902 17.38 96.654 16.943 97.19 16.283V14.063H94.676V15.139H96.068V15.833C95.854 16.049 95.411 16.276 94.945 16.276C93.988 16.276 93.293 15.469 93.293 14.376C93.293 13.281 93.988 12.473 94.945 12.473C95.506 12.473 95.957 12.821 96.194 13.23L97.127 12.674C96.732 11.99 96.044 11.382 94.947 11.382C93.406 11.382 92.14 12.545 92.14 14.376C92.14 16.2 93.405 17.38 94.946 17.38ZM100.581 17.37C98.993 17.37 97.831 16.12 97.831 14.374C97.831 12.63 98.993 11.38 100.582 11.38C102.179 11.38 103.341 12.63 103.341 14.374C103.341 16.119 102.179 17.369 100.582 17.369L100.581 17.37ZM100.581 16.275C101.555 16.275 102.185 15.451 102.185 14.375C102.185 13.289 101.555 12.472 100.581 12.472C99.609 12.472 98.985 13.289 98.985 14.374C98.985 15.451 99.609 16.275 100.581 16.275ZM107.481 17.265V16.18H105.252V11.475H104.13V17.265H107.481ZM110.343 17.265H108.263V11.475H110.343C111.995 11.475 113.14 12.63 113.14 14.375C113.14 16.119 111.995 17.265 110.343 17.265ZM110.343 16.18C111.386 16.18 111.995 15.356 111.995 14.374C111.995 13.349 111.425 12.56 110.343 12.56H109.386V16.18H110.343Z" fill="black"/>
</g>
<defs>
<linearGradient id="paint0_linear_1_13843" x1="19.0505" y1="19.0004" x2="23.5657" y2="-7.77567" gradientUnits="userSpaceOnUse">
<stop stop-color="#E6AF16"/>
<stop offset="1" stop-color="#FFE8A5"/>
</linearGradient>
</defs>
</svg>
