<svg width="142" height="24" viewBox="0 0 142 24" fill="none" xmlns="http://www.w3.org/2000/svg">
<g id="Frame">
<path id="Vector" d="M7.74001 10.07C11.543 8.752 12.192 5.318 11.705 2.161C11.705 2.047 11.802 1.965 11.9 2.015C15.543 3.788 19.64 7.678 19.64 13.537C19.64 18.029 16.175 22 11.14 22C5.76501 22 2.64001 18.142 2.64001 13.537C2.64001 10.852 4.53301 8.085 6.57401 6.914C6.67101 6.848 6.80101 6.914 6.80101 7.027C6.84901 7.629 7.01101 9.159 7.67501 10.054C7.69101 10.07 7.72501 10.07 7.74001 10.07Z" fill="url(#paint0_linear_1_13830)"/>
<path id="Vector_2" d="M91.95 8.26C92.148 7.565 92.896 7 93.62 7H138.639C139.363 7 139.789 7.566 139.592 8.26L136.33 19.738C136.132 20.435 135.383 21 134.66 21H89.643C88.918 21 88.493 20.433 88.689 19.738L91.952 8.261L91.95 8.26Z" fill="url(#paint1_linear_1_13830)"/>
<path id="Vector_3" d="M64.618 2.577V21.687H61.224V20.237C60.144 21.363 58.707 22 57.194 22C53.495 22 51.01 19.062 51.01 14.69C51.01 10.307 53.495 7.363 57.194 7.363C58.716 7.363 60.152 8.006 61.224 9.148V2.578H64.618V2.577ZM72.384 7.363C76.39 7.363 79.187 10.484 79.187 14.955V15.895H68.93C69.269 17.859 70.795 19.112 72.889 19.112C74.215 19.112 75.666 18.544 76.501 17.699L76.709 17.489L78.316 19.838L78.166 19.983C76.83 21.283 74.853 22 72.596 22C68.34 22 65.368 18.988 65.368 14.673C65.386 10.505 68.402 7.363 72.384 7.363ZM28.236 3.997V7.677H30.928V10.745H28.22V17.561C28.22 17.874 28.294 18.898 29.248 18.898C29.728 18.898 30.186 18.698 30.352 18.505L30.639 18.169L31.501 20.953L31.389 21.058C30.742 21.672 29.769 21.983 28.497 21.983H28.451C27.308 21.983 26.413 21.668 25.794 21.047C25.162 20.413 24.842 19.484 24.842 18.287V10.745H22.64V7.676H24.842V3.996L28.236 3.997ZM36.049 7.693V21.67H32.653V7.692H36.047L36.049 7.693ZM45.546 7.363C48.481 7.363 50.097 8.986 50.097 11.933V21.67H46.704V12.743H46.714C46.646 11.158 45.89 10.449 44.29 10.449C42.86 10.449 41.696 11.323 41.108 12.099V21.67H37.714V7.692H41.108V9.17C42.09 8.23 43.655 7.363 45.546 7.363ZM87.639 7.38V10.833L87.347 10.774C87.0616 10.7198 86.7715 10.6937 86.481 10.696C85.386 10.696 83.867 11.47 83.3 12.306V21.653H79.906V7.693H83.316V9.256C84.439 8.07 85.923 7.379 87.396 7.379H87.64L87.639 7.38ZM58.027 10.448C55.929 10.448 54.519 12.153 54.519 14.689C54.519 17.216 55.929 18.914 58.027 18.914C59.25 18.914 60.581 18.24 61.225 17.304V12.094C60.553 11.137 59.222 10.449 58.026 10.449L58.027 10.448ZM72.385 10.25C70.002 10.25 69.1 12.07 68.908 13.32H75.878C75.686 11.214 73.961 10.25 72.385 10.25ZM34.334 2C35.459 2 36.374 2.925 36.374 4.062C36.374 5.2 35.459 6.126 34.334 6.126C33.21 6.126 32.294 5.2 32.294 4.062C32.294 2.945 33.229 2 34.334 2Z" fill="#E9EBEE"/>
<path id="Vector_4" d="M95.793 16.894V14.782H97.173C98.343 14.782 98.993 13.925 98.993 12.9C98.993 11.866 98.351 11 97.173 11H94.64V16.894H95.793ZM97.019 13.704H95.793V12.078H97.019C97.474 12.078 97.815 12.405 97.815 12.891C97.815 13.386 97.474 13.704 97.019 13.704ZM103.149 16.894V15.789H100.859V11H99.707V16.894H103.149ZM104.644 16.894L104.984 15.878H107.404L107.746 16.894H109.004L106.917 11H105.472L103.377 16.894H104.644ZM107.088 14.791H105.293L106.195 12.087L107.088 14.791ZM111.4 16.894V12.104H112.975V11H108.655V12.105H110.238V16.894H111.4ZM114.867 16.894V11H113.714V16.894H114.867ZM117.092 16.894V12.935L119.674 16.894H120.786V11H119.633V14.817L117.124 11H115.94V16.894H117.092ZM124.286 17C125.926 17 126.697 16.001 126.697 14.535V11H125.528V14.5C125.528 15.321 125.114 15.887 124.286 15.887C123.441 15.887 123.027 15.321 123.027 14.499V11H121.858V14.543C121.858 15.993 122.629 17 124.286 17ZM128.922 16.894V12.652L130.449 16.894H130.952L132.479 12.652V16.894H133.64V11H132.016L130.701 14.676L129.385 11H127.769V16.894H128.922Z" fill="black"/>
</g>
<defs>
<linearGradient id="paint0_linear_1_13830" x1="5.12961" y1="19.0711" x2="19.087" y2="7.20728" gradientUnits="userSpaceOnUse">
<stop stop-color="#B9BFC8"/>
<stop offset="1" stop-color="#F0F2F4"/>
</linearGradient>
<linearGradient id="paint1_linear_1_13830" x1="96.1098" y1="18.9497" x2="101.164" y2="0.538234" gradientUnits="userSpaceOnUse">
<stop stop-color="#B9BFC8"/>
<stop offset="1" stop-color="#F0F2F4"/>
</linearGradient>
</defs>
</svg>
