<svg width="50" height="50" viewBox="0 0 50 50" fill="none" xmlns="http://www.w3.org/2000/svg">
<g id="Back">
<circle id="Ellipse 1" cx="24.6744" cy="24.9029" r="24.1846" stroke="#F3D677" stroke-width="0.671795"/>
<path id="Union" fill-rule="evenodd" clip-rule="evenodd" d="M16.5145 16.3344C15.9074 16.7323 15.9074 17.6222 16.5145 18.0201L22.9896 22.2637C23.6597 22.7029 24.5496 22.2221 24.5496 21.4208V19.3569C25.3333 19.3242 26.1205 19.444 26.8665 19.7146C28.0685 20.1507 29.1017 20.9561 29.8179 22.0154C30.534 23.0747 30.8965 24.3336 30.8532 25.6116C30.8099 26.8896 30.3632 28.1211 29.577 29.1295C28.7909 30.138 27.7056 30.8717 26.4768 31.2255C25.248 31.5793 23.9387 31.5349 22.7367 31.0989C21.5346 30.6628 20.5015 29.8574 19.7853 28.7981C19.3216 28.1123 19.0062 27.3428 18.8532 26.5388C18.7145 25.8098 18.1487 25.1815 17.4071 25.1564L15.5697 25.0942C14.8281 25.0691 14.1976 25.6521 14.2667 26.3909C14.4313 28.1535 15.0365 29.8544 16.036 31.3328C17.2875 33.1839 19.0928 34.5913 21.1933 35.3533C23.2938 36.1152 25.5817 36.1927 27.7289 35.5745C29.8761 34.9563 31.7725 33.6742 33.1463 31.912C34.5201 30.1498 35.3007 27.9979 35.3763 25.7647C35.4519 23.5316 34.8186 21.3318 33.5671 19.4807C32.3156 17.6296 30.5103 16.2222 28.4098 15.4602C27.1661 15.009 25.8566 14.7978 24.5496 14.829V12.9337C24.5496 12.1324 23.6597 11.6517 22.9896 12.0909L16.5145 16.3344Z" fill="url(#paint0_linear_1_218)"/>
</g>
<defs>
<linearGradient id="paint0_linear_1_218" x1="14.2615" y1="23.8952" x2="40.9653" y2="19.0247" gradientUnits="userSpaceOnUse">
<stop stop-color="#F3D677"/>
<stop offset="1" stop-color="#F3D97D"/>
</linearGradient>
</defs>
</svg>
