<svg width="51" height="50" viewBox="0 0 51 50" fill="none" xmlns="http://www.w3.org/2000/svg">
<g id="Star">
<circle id="Ellipse 3" cx="25.4999" cy="24.9029" r="24.1846" stroke="#62BAF3" stroke-width="0.671795"/>
<path id="Vector" d="M37.2684 20.6871L29.6272 19.5182L26.2022 12.2119C25.9464 11.6663 25.0526 11.6663 24.7968 12.2119L21.3728 19.5182L13.7315 20.6871C13.1039 20.7836 12.8533 21.548 13.2934 21.9992L18.8447 27.6977L17.5325 35.7539C17.4279 36.3939 18.1104 36.8741 18.6748 36.5598L25.5 32.7822L32.3251 36.5609C32.8844 36.872 33.5731 36.4011 33.4675 35.7549L32.1553 27.6988L37.7065 22.0002C38.1467 21.548 37.895 20.7836 37.2684 20.6871Z" fill="url(#paint0_linear_1_224)"/>
</g>
<defs>
<linearGradient id="paint0_linear_1_224" x1="18.446" y1="29.2694" x2="37.9281" y2="21.8797" gradientUnits="userSpaceOnUse">
<stop stop-color="#62BAF3"/>
<stop offset="1" stop-color="#6EDAED"/>
</linearGradient>
</defs>
</svg>
