<svg width="11" height="13" viewBox="0 0 11 13" fill="none" xmlns="http://www.w3.org/2000/svg">
<g id="Location">
<g id="Union">
<path fill-rule="evenodd" clip-rule="evenodd" d="M9.91764 5.94862C9.91764 7.69046 8.81788 9.28934 7.59517 10.512C6.99571 11.1115 6.39379 11.5933 5.94096 11.9254C5.79245 12.0343 5.66062 12.1266 5.55097 12.2013C5.44133 12.1266 5.3095 12.0343 5.16099 11.9254C4.70815 11.5933 4.10623 11.1115 3.50677 10.512C2.28407 9.28934 1.18431 7.69046 1.18431 5.94862C1.18431 3.53697 3.13933 1.58195 5.55097 1.58195C7.96262 1.58195 9.91764 3.53697 9.91764 5.94862ZM10.5894 5.94862C10.5894 9.97939 5.55097 13.0025 5.55097 13.0025C5.55097 13.0025 0.512512 9.97939 0.512512 5.94862C0.512512 3.16595 2.76831 0.910156 5.55097 0.910156C8.33364 0.910156 10.5894 3.16595 10.5894 5.94862ZM6.89471 5.94864C6.89471 6.69068 6.29316 7.29223 5.55112 7.29223C4.80907 7.29223 4.20753 6.69068 4.20753 5.94864C4.20753 5.2066 4.80907 4.60505 5.55112 4.60505C6.29316 4.60505 6.89471 5.2066 6.89471 5.94864ZM7.5665 5.94864C7.5665 7.06171 6.66418 7.96403 5.55112 7.96403C4.43805 7.96403 3.53573 7.06171 3.53573 5.94864C3.53573 4.83557 4.43805 3.93326 5.55112 3.93326C6.66418 3.93326 7.5665 4.83557 7.5665 5.94864Z" fill="white"/>
<path fill-rule="evenodd" clip-rule="evenodd" d="M9.91764 5.94862C9.91764 7.69046 8.81788 9.28934 7.59517 10.512C6.99571 11.1115 6.39379 11.5933 5.94096 11.9254C5.79245 12.0343 5.66062 12.1266 5.55097 12.2013C5.44133 12.1266 5.3095 12.0343 5.16099 11.9254C4.70815 11.5933 4.10623 11.1115 3.50677 10.512C2.28407 9.28934 1.18431 7.69046 1.18431 5.94862C1.18431 3.53697 3.13933 1.58195 5.55097 1.58195C7.96262 1.58195 9.91764 3.53697 9.91764 5.94862ZM10.5894 5.94862C10.5894 9.97939 5.55097 13.0025 5.55097 13.0025C5.55097 13.0025 0.512512 9.97939 0.512512 5.94862C0.512512 3.16595 2.76831 0.910156 5.55097 0.910156C8.33364 0.910156 10.5894 3.16595 10.5894 5.94862ZM6.89471 5.94864C6.89471 6.69068 6.29316 7.29223 5.55112 7.29223C4.80907 7.29223 4.20753 6.69068 4.20753 5.94864C4.20753 5.2066 4.80907 4.60505 5.55112 4.60505C6.29316 4.60505 6.89471 5.2066 6.89471 5.94864ZM7.5665 5.94864C7.5665 7.06171 6.66418 7.96403 5.55112 7.96403C4.43805 7.96403 3.53573 7.06171 3.53573 5.94864C3.53573 4.83557 4.43805 3.93326 5.55112 3.93326C6.66418 3.93326 7.5665 4.83557 7.5665 5.94864Z" fill="white"/>
</g>
</g>
</svg>
