<svg width="32" height="28" viewBox="0 0 32 28" fill="none" xmlns="http://www.w3.org/2000/svg">
<path id="Union" fill-rule="evenodd" clip-rule="evenodd" d="M7.10433 27.2428L6.96065 22.9325C6.95646 22.8068 6.88282 22.6949 6.77085 22.6377C4.59227 21.5232 0.571777 18.0618 0.571777 12.315C0.571777 4.92528 6.95383 0.726562 14.3436 0.726562C21.5682 0.726562 27.9902 5.54242 28.2736 12.5061C28.283 12.739 28.051 12.9049 27.8274 12.839C27.0452 12.6084 25.7255 12.315 24.4205 12.315C22.4051 12.315 15.8551 12.9868 15.8551 19.7048C15.8551 21.6711 16.3989 23.0447 16.918 23.8483C17.0903 24.115 16.8945 24.5753 16.577 24.5753H13.5831C13.531 24.5753 13.4795 24.5874 13.4329 24.6107L7.59026 27.5321C7.37127 27.6416 7.11248 27.4875 7.10433 27.2428ZM31.4743 20.0407C31.4743 22.3089 30.0518 24.2854 27.9474 25.3199V27.0111C27.9474 27.2709 27.6651 27.4323 27.4412 27.3006L25.3204 26.0531C25.0799 26.0754 24.8357 26.0868 24.5884 26.0868C20.7855 26.0868 17.7025 23.3799 17.7025 20.0407C17.7025 16.7015 20.7855 13.9945 24.5884 13.9945C28.3914 13.9945 31.4743 16.7015 31.4743 20.0407Z" fill="#7D848F"/>
</svg>
