<svg width="17" height="18" viewBox="0 0 17 18" fill="none" xmlns="http://www.w3.org/2000/svg">
<path id="Vector" d="M8.8402 12.1067C8.06665 12.1067 7.32478 11.7994 6.7778 11.2524C6.23082 10.7054 5.92353 9.96356 5.92353 9.19001C5.92353 8.41646 6.23082 7.67459 6.7778 7.12761C7.32478 6.58063 8.06665 6.27334 8.8402 6.27334C9.61375 6.27334 10.3556 6.58063 10.9026 7.12761C11.4496 7.67459 11.7569 8.41646 11.7569 9.19001C11.7569 9.96356 11.4496 10.7054 10.9026 11.2524C10.3556 11.7994 9.61375 12.1067 8.8402 12.1067ZM15.0319 9.99834C15.0652 9.73167 15.0902 9.46501 15.0902 9.19001C15.0902 8.91501 15.0652 8.64001 15.0319 8.35667L16.7902 6.99834C16.9485 6.87334 16.9902 6.64834 16.8902 6.46501L15.2235 3.58167C15.1235 3.39834 14.8985 3.32334 14.7152 3.39834L12.6402 4.23167C12.2069 3.90667 11.7569 3.62334 11.2319 3.41501L10.9235 1.20667C10.8902 1.00667 10.7152 0.856674 10.5069 0.856674H7.17353C6.9652 0.856674 6.7902 1.00667 6.75686 1.20667L6.44853 3.41501C5.92353 3.62334 5.47353 3.90667 5.0402 4.23167L2.9652 3.39834C2.78186 3.32334 2.55687 3.39834 2.45687 3.58167L0.790198 6.46501C0.681865 6.64834 0.731865 6.87334 0.890198 6.99834L2.64853 8.35667C2.6152 8.64001 2.5902 8.91501 2.5902 9.19001C2.5902 9.46501 2.6152 9.73167 2.64853 9.99834L0.890198 11.3817C0.731865 11.5067 0.681865 11.7317 0.790198 11.915L2.45687 14.7983C2.55687 14.9817 2.78186 15.0483 2.9652 14.9817L5.0402 14.14C5.47353 14.4733 5.92353 14.7567 6.44853 14.965L6.75686 17.1733C6.7902 17.3733 6.9652 17.5233 7.17353 17.5233H10.5069C10.7152 17.5233 10.8902 17.3733 10.9235 17.1733L11.2319 14.965C11.7569 14.7483 12.2069 14.4733 12.6402 14.14L14.7152 14.9817C14.8985 15.0483 15.1235 14.9817 15.2235 14.7983L16.8902 11.915C16.9902 11.7317 16.9485 11.5067 16.7902 11.3817L15.0319 9.99834Z" fill="#7C8591"/>
</svg>
