<svg width="17" height="17" viewBox="0 0 17 17" fill="none" xmlns="http://www.w3.org/2000/svg">
<path id="Vector" d="M8.48486 0.25C7.74846 0.25 7.15153 0.846953 7.15153 1.58333V6.91667H1.8182C1.08182 6.91667 0.484863 7.5136 0.484863 8.25C0.484863 8.9864 1.08182 9.58333 1.8182 9.58333H7.15153V14.9167C7.15153 15.6531 7.74846 16.25 8.48486 16.25C9.22126 16.25 9.8182 15.6531 9.8182 14.9167V9.58333H15.1515C15.8879 9.58333 16.4849 8.9864 16.4849 8.25C16.4849 7.5136 15.8879 6.91667 15.1515 6.91667H9.8182V1.58333C9.8182 0.846954 9.22126 0.25 8.48486 0.25Z" fill="white"/>
</svg>
