<svg width="20" height="27" viewBox="0 0 20 27" fill="none" xmlns="http://www.w3.org/2000/svg">
<path id="Union" fill-rule="evenodd" clip-rule="evenodd" d="M10.2077 26.9266C10.2111 26.9266 10.2146 26.9266 10.2181 26.9266C10.2201 26.9266 10.2222 26.9266 10.2242 26.9266C14.586 26.9245 19.9383 26.4148 19.9383 22.5599C19.9383 19.6895 16.7503 16.9833 14.8162 15.7603C14.6162 15.6339 14.5957 15.3451 14.7673 15.1822C16.3903 13.6418 17.0985 10.9715 17.0985 7.66406C16.9528 3.90014 13.9281 0.894531 10.2181 0.894531C6.52527 0.894531 3.5114 3.87232 3.33988 7.61173C3.33988 10.9715 4.26609 13.8706 5.64801 15.1822C5.81966 15.3451 5.79913 15.6339 5.59911 15.7603C3.66499 16.9833 0.477051 19.6895 0.477051 22.5599C0.477051 26.4148 5.82933 26.9245 10.1911 26.9266C10.1932 26.9266 10.1952 26.9266 10.1972 26.9266C10.2007 26.9266 10.2042 26.9266 10.2077 26.9266Z" fill="#7D848F"/>
</svg>
