<svg width="29" height="25" viewBox="0 0 29 25" fill="none" xmlns="http://www.w3.org/2000/svg">
<path id="Search" fill-rule="evenodd" clip-rule="evenodd" d="M13.8358 0.90332C13.2793 0.90332 12.8281 1.35448 12.8281 1.91101V9.02356C14.2981 8.13341 16.0225 7.62104 17.8665 7.62104C19.7105 7.62104 21.4349 8.13347 22.905 9.02369V1.91101C22.905 1.35448 22.4539 0.90332 21.8973 0.90332H13.8358ZM1.0719 13.667H8.85071C8.3832 14.8064 8.12543 16.0542 8.12543 17.3621C8.12543 19.5377 8.83869 21.5468 10.0441 23.1681C9.88238 23.5085 9.53539 23.7439 9.13344 23.7439H1.0719C0.515367 23.7439 0.064209 23.2927 0.064209 22.7362V14.6747C0.064209 14.1181 0.515368 13.667 1.0719 13.667ZM0.0642633 1.91111C0.0642633 1.35457 0.515422 0.903416 1.07196 0.903416H9.13349C9.69003 0.903416 10.1412 1.35458 10.1412 1.91111V9.97265C10.1412 10.5292 9.69003 10.9803 9.13349 10.9803H1.07195C0.515421 10.9803 0.0642633 10.5292 0.0642633 9.97265V1.91111ZM24.9208 17.0263C24.9208 17.8174 24.7906 18.578 24.5504 19.288L27.5329 21.7906C28.2435 22.3868 28.3362 23.4462 27.7399 24.1567C27.1437 24.8673 26.0844 24.96 25.3738 24.3637L22.7247 22.1409C21.4598 23.3427 19.7495 24.0802 17.867 24.0802C13.9712 24.0802 10.8131 20.9221 10.8131 17.0263C10.8131 13.1306 13.9712 9.97247 17.867 9.97247C21.7627 9.97247 24.9208 13.1306 24.9208 17.0263ZM13.9873 17.0263C13.9873 19.169 15.7243 20.9059 17.867 20.9059C20.0096 20.9059 21.7466 19.169 21.7466 17.0263C21.7466 14.8837 20.0096 13.1467 17.867 13.1467C15.7243 13.1467 13.9873 14.8837 13.9873 17.0263Z" fill="#7D8490"/>
</svg>
