<svg width="24" height="24" viewBox="0 0 24 24" fill="none" xmlns="http://www.w3.org/2000/svg">
<path id="Vector" d="M22.4193 8.61899L16.1288 7.85999C15.9563 7.85999 15.6803 7.57249 15.5883 7.38849L12.8973 1.35099C12.3568 0.212491 11.5518 0.212491 11.1033 1.35099L8.40083 7.38849C8.40083 7.57249 8.13633 7.84849 7.86033 7.84849L1.56983 8.60749C0.40833 8.60749 0.13233 9.56199 1.04083 10.505L5.70983 14.8405C5.88233 15.0245 5.97433 15.4155 5.88233 15.5995L4.64033 22.2005C4.45633 23.3275 5.10033 23.9025 6.16983 23.1435L11.5633 19.935H12.4603L17.8538 23.2355C18.7508 23.9025 19.6478 23.2355 19.2913 22.1085L18.1183 15.496C18.1183 15.496 18.1183 15.036 18.3828 14.8405L22.8793 10.4015C23.7763 9.45849 23.7763 8.51549 22.4308 8.51549V8.60749L22.4193 8.61899Z" fill="#1B86F9"/>
</svg>
