<svg width="21" height="24" viewBox="0 0 21 24" fill="none" xmlns="http://www.w3.org/2000/svg">
<path id="Vector" d="M6.57833 9.76C6.555 9.76 6.53167 9.76 6.50833 9.73667C5.72667 8.68667 5.52833 6.89 5.47 6.20167C5.47 6.07334 5.31833 5.99167 5.20167 6.06167C2.75167 7.42667 0.5 10.67 0.5 13.7967C0.5 19.1633 4.23333 23.6667 10.65 23.6667C16.6583 23.6667 20.8 19.0233 20.8 13.7967C20.8 6.94834 15.9 2.39834 11.5483 0.345004C11.523 0.33105 11.4941 0.324651 11.4652 0.326564C11.4363 0.328477 11.4086 0.338622 11.3853 0.355799C11.362 0.372977 11.3441 0.396469 11.3337 0.4235C11.3233 0.45053 11.3209 0.479969 11.3267 0.508337C11.8867 4.195 11.1167 8.20834 6.57833 9.76Z" fill="#FF4458"/>
</svg>
