<svg width="24" height="21" viewBox="0 0 24 21" fill="none" xmlns="http://www.w3.org/2000/svg">
<g id="Frame">
<g id="Mask Group">
<mask id="mask0_1_11293" style="mask-type:luminance" maskUnits="userSpaceOnUse" x="2" y="0" width="20" height="21">
<g id="Group">
<path id="Vector" d="M22 0.190002H2V20.19H22V0.190002Z" fill="white"/>
</g>
</mask>
<g mask="url(#mask0_1_11293)">
<g id="Group_2">
<path id="Vector_2" fill-rule="evenodd" clip-rule="evenodd" d="M2.64564 7.45719L3.20713 7.14895C3.67878 6.88474 3.92583 6.35634 3.79107 5.87196L3.67877 5.25548C3.54402 4.52891 4.10551 3.84639 4.84667 3.80235L5.49799 3.75832C6.03702 3.73629 6.50867 3.36201 6.64342 2.85561L6.8231 2.23914C7.02523 1.51257 7.81132 1.13828 8.50756 1.4245L9.11396 1.66669C9.60807 1.86484 10.1696 1.73274 10.5289 1.33644L10.9557 0.852056C11.4497 0.279611 12.3257 0.279611 12.8197 0.808022L13.2465 1.2924C13.6058 1.68871 14.1898 1.79879 14.6839 1.60064L15.3577 1.35845C16.0539 1.07223 16.8625 1.44652 17.0646 2.15107L17.2443 2.76754C17.379 3.27394 17.8507 3.62621 18.3897 3.64823L19.041 3.67024C19.8047 3.69226 20.3662 4.37479 20.2314 5.10136L20.1191 5.71784C20.0293 6.22424 20.2987 6.75264 20.7704 6.99483L21.3319 7.30307C21.9832 7.63333 22.1853 8.49199 21.7587 9.08642L21.3768 9.61484C21.0624 10.0332 21.0624 10.6277 21.3768 11.046L21.7587 11.5523C22.2078 12.1468 22.0057 13.0055 21.3543 13.3578L20.7928 13.666C20.3212 13.9303 20.0742 14.4366 20.164 14.965L20.2763 15.5815C20.4111 16.3081 19.8496 16.9906 19.1084 17.0347L18.4571 17.0787C17.9181 17.1007 17.4464 17.475 17.3117 17.9813L17.132 18.5978C16.9298 19.3244 16.1437 19.6987 15.4475 19.4125L14.8411 19.1703C14.347 18.9722 13.7855 19.1043 13.4262 19.5006L12.9994 19.9849C12.5053 20.5573 11.607 20.5573 11.1128 20.0069L10.6861 19.5226C10.3268 19.1263 9.74282 19.0162 9.24872 19.2143L8.64232 19.4565C7.94607 19.7428 7.13753 19.3684 6.9354 18.6639L6.75572 18.0474C6.62097 17.541 6.14932 17.1888 5.61029 17.1668L4.95897 17.1448C4.19534 17.1227 3.63386 16.4402 3.76862 15.7136L3.88092 15.0972C3.97075 14.5908 3.70123 14.0623 3.22959 13.8202L2.6681 13.5119C2.01678 13.1817 1.81464 12.323 2.24137 11.7285L2.62318 11.2001C2.93762 10.7818 2.93762 10.1873 2.62318 9.769L2.24137 9.26259C1.79219 8.66817 1.99432 7.80946 2.64564 7.45719ZM15.7938 6.02099C16.1567 6.02099 16.4768 6.15212 16.7327 6.41438C16.9888 6.65478 17.1169 7.00444 17.1169 7.35412C17.1169 7.70379 16.9675 8.05346 16.7114 8.31572L11.6114 13.9626C11.3767 14.2248 11.0352 14.3559 10.6938 14.3559C10.3524 14.3559 10.0323 14.2248 9.77627 13.9626L7.2156 10.9164C6.95953 10.676 6.8315 10.3263 6.8315 9.97667C6.8315 9.627 6.95953 9.29917 7.2156 9.03692C7.47167 8.77467 7.81309 8.6435 8.15452 8.6435C8.49594 8.6435 8.81603 8.77467 9.07209 9.03692L10.6938 10.4861L14.8762 6.41438C15.111 6.15212 15.4524 6.02099 15.7938 6.02099Z" fill="#B9BFC8"/>
</g>
</g>
</g>
</g>
</svg>
