<svg width="62" height="62" viewBox="0 0 62 62" fill="none" xmlns="http://www.w3.org/2000/svg">
<g id="X">
<circle id="Ellipse 2" cx="30.5872" cy="30.9026" r="30.2308" stroke="#D94A38" stroke-width="0.671795"/>
<path id="Union" fill-rule="evenodd" clip-rule="evenodd" d="M40.4349 19.5484C39.4511 18.5646 37.856 18.5646 36.8722 19.5484L30.4276 25.993L23.9829 19.5484C22.9991 18.5646 21.404 18.5646 20.4202 19.5484L19.2326 20.736C18.2488 21.7198 18.2488 23.3149 19.2326 24.2987L25.6772 30.7434L19.2326 37.188C18.2488 38.1718 18.2488 39.7669 19.2326 40.7507L20.4202 41.9383C21.404 42.9221 22.9991 42.9221 23.9829 41.9383L30.4276 35.4937L36.8722 41.9383C37.856 42.9221 39.4511 42.9221 40.4349 41.9383L41.6225 40.7507C42.6063 39.7669 42.6063 38.1718 41.6225 37.188L35.1779 30.7434L41.6225 24.2987C42.6063 23.3149 42.6063 21.7198 41.6225 20.736L40.4349 19.5484Z" fill="url(#paint0_linear_1_221)"/>
</g>
<defs>
<linearGradient id="paint0_linear_1_221" x1="17.1892" y1="45.4661" x2="32.2063" y2="5.60919" gradientUnits="userSpaceOnUse">
<stop stop-color="#EA4080"/>
<stop offset="1" stop-color="#EE805F"/>
</linearGradient>
</defs>
</svg>
